<svg width="24" height="24" viewBox="0 0 24 24" fill="none" xmlns="http://www.w3.org/2000/svg">
<path d="M10.472 0.164712C10.983 -0.115641 11.6975 -0.0294267 12.068 0.357279C13.2995 1.64273 15.0057 3.80034 16.5227 6.44171C16.9166 6.09967 17.3312 5.79667 17.7705 5.55278C18.7349 5.01731 19.893 4.72998 21.1711 5.00633C21.7779 5.13761 22.1291 5.61636 21.9557 6.07558C21.7823 6.53477 21.1496 6.80053 20.5428 6.66932C20.1236 6.57875 19.6868 6.63394 19.1226 6.94719C18.6175 7.22763 18.0826 7.68102 17.5116 8.29643C19.0664 11.4567 20.2257 15.1581 19.9987 18.8509C19.9694 19.328 19.4344 19.6969 18.804 19.6747C18.1735 19.6526 17.686 19.2477 17.7153 18.7706C17.8939 15.8641 17.134 12.9019 15.9736 10.2073C15.3919 11.0082 14.8037 11.8836 14.1919 12.7867C13.2535 14.1719 12.2602 15.6162 11.1874 16.8441C11.7941 18.8814 12.1307 21.0284 11.9988 23.1752C11.9695 23.6523 11.4345 24.0212 10.8041 23.9991C10.1736 23.9769 9.68607 23.572 9.71534 23.0949C9.80642 21.6131 9.65252 20.1152 9.32584 18.6431C8.85028 19.0147 8.34678 19.3414 7.80911 19.5996C6.59106 20.1845 5.18961 20.4252 3.66407 20.07C3.0608 19.9296 2.72232 19.4455 2.90794 18.9889C3.09355 18.5324 3.7327 18.2763 4.33593 18.4167C5.118 18.5988 5.83143 18.5003 6.58424 18.1389C7.28561 17.8021 7.99709 17.2438 8.72595 16.494C7.13488 11.7449 4.0498 7.60919 2.21765 5.69678C1.84719 5.31007 1.96111 4.76938 2.47212 4.48901C2.98312 4.20866 3.69761 4.29488 4.06808 4.68158C5.83457 6.52546 8.60964 10.1953 10.3721 14.5329C10.9723 13.7344 11.5639 12.8741 12.1578 11.9974C13.0705 10.6503 13.9986 9.25824 14.9558 8.09035C13.3842 5.12292 11.4902 2.70086 10.2176 1.37248C9.8471 0.985767 9.96103 0.445073 10.472 0.164712Z" fill="black"/>
</svg>
