<svg width="24" height="24" viewBox="0 0 24 24" fill="none" xmlns="http://www.w3.org/2000/svg">
<path d="M6.58065 15.1764C7.09397 15.1764 7.58627 14.9905 7.94924 14.6595C8.31222 14.3286 8.51613 13.8797 8.51613 13.4117C8.51613 12.9436 8.31222 12.4948 7.94924 12.1638C7.58627 11.8329 7.09397 11.647 6.58065 11.647C6.06733 11.647 5.57503 11.8329 5.21205 12.1638C4.84908 12.4948 4.64516 12.9436 4.64516 13.4117C4.64516 13.8797 4.84908 14.3286 5.21205 14.6595C5.57503 14.9905 6.06733 15.1764 6.58065 15.1764ZM6.58065 20.1176C7.09397 20.1176 7.58627 19.9316 7.94924 19.6007C8.31222 19.2697 8.51613 18.8209 8.51613 18.3529C8.51613 17.8848 8.31222 17.436 7.94924 17.105C7.58627 16.7741 7.09397 16.5881 6.58065 16.5881C6.06733 16.5881 5.57503 16.7741 5.21205 17.105C4.84908 17.436 4.64516 17.8848 4.64516 18.3529C4.64516 18.8209 4.84908 19.2697 5.21205 19.6007C5.57503 19.9316 6.06733 20.1176 6.58065 20.1176ZM13.9355 13.4117C13.9355 13.8797 13.7316 14.3286 13.3686 14.6595C13.0056 14.9905 12.5133 15.1764 12 15.1764C11.4867 15.1764 10.9944 14.9905 10.6314 14.6595C10.2684 14.3286 10.0645 13.8797 10.0645 13.4117C10.0645 12.9436 10.2684 12.4948 10.6314 12.1638C10.9944 11.8329 11.4867 11.647 12 11.647C12.5133 11.647 13.0056 11.8329 13.3686 12.1638C13.7316 12.4948 13.9355 12.9436 13.9355 13.4117ZM12 20.1176C12.5133 20.1176 13.0056 19.9316 13.3686 19.6007C13.7316 19.2697 13.9355 18.8209 13.9355 18.3529C13.9355 17.8848 13.7316 17.436 13.3686 17.105C13.0056 16.7741 12.5133 16.5881 12 16.5881C11.4867 16.5881 10.9944 16.7741 10.6314 17.105C10.2684 17.436 10.0645 17.8848 10.0645 18.3529C10.0645 18.8209 10.2684 19.2697 10.6314 19.6007C10.9944 19.9316 11.4867 20.1176 12 20.1176ZM19.3548 13.4117C19.3548 13.8797 19.1509 14.3286 18.788 14.6595C18.425 14.9905 17.9327 15.1764 17.4194 15.1764C16.906 15.1764 16.4137 14.9905 16.0508 14.6595C15.6878 14.3286 15.4839 13.8797 15.4839 13.4117C15.4839 12.9436 15.6878 12.4948 16.0508 12.1638C16.4137 11.8329 16.906 11.647 17.4194 11.647C17.9327 11.647 18.425 11.8329 18.788 12.1638C19.1509 12.4948 19.3548 12.9436 19.3548 13.4117Z" fill="black"/>
<path fill-rule="evenodd" clip-rule="evenodd" d="M5.80645 0C6.11444 0 6.40982 0.111554 6.62761 0.310122C6.84539 0.50869 6.96774 0.778006 6.96774 1.05882V2.11765H17.0323V1.05882C17.0323 0.778006 17.1546 0.50869 17.3724 0.310122C17.5902 0.111554 17.8856 0 18.1935 0C18.5015 0 18.7969 0.111554 19.0147 0.310122C19.2325 0.50869 19.3548 0.778006 19.3548 1.05882V2.12894C19.5902 2.13459 19.8095 2.14494 20.0129 2.16C20.6013 2.20235 21.1525 2.29835 21.6743 2.54118C22.4757 2.91342 23.1272 3.50745 23.5355 4.23812C23.8018 4.71388 23.9071 5.21647 23.9535 5.75294C24 6.26824 24 6.89647 24 7.65177V18.4659C24 19.2212 24 19.8494 23.9535 20.3647C23.9071 20.9012 23.8018 21.4038 23.5355 21.8795C23.1276 22.61 22.4767 23.204 21.6759 23.5765C21.1525 23.8193 20.6013 23.9153 20.0129 23.9576C19.4477 24 18.7587 24 17.9319 24H6.06968C5.24129 24 4.55226 24 3.9871 23.9576C3.39871 23.9153 2.84748 23.8193 2.32568 23.5765C1.52478 23.205 0.873306 22.612 0.464516 21.8824C0.198194 21.4052 0.0929035 20.9026 0.0464519 20.3661C3.25903e-07 19.8508 0 19.2226 0 18.4687V7.65177C0 6.89647 3.25903e-07 6.26824 0.0464519 5.75294C0.0929035 5.21647 0.198194 4.71388 0.464516 4.23812C0.87278 3.50745 1.5243 2.91342 2.32568 2.54118C2.84748 2.29835 3.39871 2.20235 3.9871 2.16C4.19045 2.14494 4.40981 2.13459 4.64516 2.12894V1.05882C4.64516 0.919777 4.6752 0.782092 4.73356 0.653629C4.79192 0.525167 4.87746 0.408443 4.9853 0.310122C5.09313 0.211801 5.22115 0.133809 5.36204 0.080598C5.50294 0.0273872 5.65395 0 5.80645 0ZM21.6774 9.88235H2.32258V18.4235C2.32258 19.2311 2.32258 19.7746 2.36129 20.1911C2.3969 20.5976 2.46194 20.7911 2.53316 20.9181C2.71897 21.2513 3.01471 21.5209 3.38013 21.6904C3.51948 21.7553 3.73161 21.8146 4.176 21.8471C4.63432 21.8809 5.2289 21.8824 6.11613 21.8824H17.8839C18.7695 21.8824 19.3657 21.8824 19.8225 21.8471C20.2684 21.8146 20.4805 21.7553 20.6199 21.6904C20.9846 21.5211 21.2812 21.2507 21.4668 20.9181C21.5381 20.7911 21.6031 20.5976 21.6387 20.1911C21.6759 19.7746 21.6774 19.2311 21.6774 18.4235V9.88235ZM9.67742 5.29412C9.36943 5.29412 9.07405 5.40567 8.85626 5.60424C8.63848 5.80281 8.51613 6.07212 8.51613 6.35294C8.51613 6.63376 8.63848 6.90307 8.85626 7.10164C9.07405 7.30021 9.36943 7.41176 9.67742 7.41176H14.3226C14.6306 7.41176 14.926 7.30021 15.1437 7.10164C15.3615 6.90307 15.4839 6.63376 15.4839 6.35294C15.4839 6.07212 15.3615 5.80281 15.1437 5.60424C14.926 5.40567 14.6306 5.29412 14.3226 5.29412H9.67742Z" fill="black"/>
</svg>
